HIERARCHY
ROOT root
{
	OFFSET 0.000000 0.000000 0.000000
	CHANNELS 6 Xposition Yposition Zposition Zrotation Yrotation Xrotation
	JOINT lhip
	{
		OFFSET 0.058581 -0.082280 -0.017664
		CHANNELS 3 Zrotation Yrotation Xrotation
		JOINT lknee
		{
			OFFSET 0.043451 -0.386469 0.008037
			CHANNELS 3 Zrotation Yrotation Xrotation
			JOINT lankle
			{
				OFFSET -0.014790 -0.426874 -0.037428
				CHANNELS 3 Zrotation Yrotation Xrotation
				JOINT ltoe
				{
					OFFSET 0.041054 -0.060286 0.122042
					CHANNELS 3 Zrotation Yrotation Xrotation
					End Site
					{
						OFFSET 0.000000 0.000000 0.000000
					}
				}
			}
		}
	}
	JOINT rhip
	{
		OFFSET -0.060310 -0.090513 -0.013543
		CHANNELS 3 Zrotation Yrotation Xrotation
		JOINT rknee
		{
			OFFSET -0.043257 -0.383688 -0.004843
			CHANNELS 3 Zrotation Yrotation Xrotation
			JOINT rankle
			{
				OFFSET 0.019056 -0.420046 -0.034562
				CHANNELS 3 Zrotation Yrotation Xrotation
				JOINT rtoe
				{
					OFFSET -0.034840 -0.062106 0.130323
					CHANNELS 3 Zrotation Yrotation Xrotation
					End Site
					{
						OFFSET 0.000000 0.000000 0.000000
					}
				}
			}
		}
	}
	JOINT lowerback
	{
		OFFSET 0.004439 0.124404 -0.038385
		CHANNELS 3 Zrotation Yrotation Xrotation
		JOINT upperback
		{
			OFFSET 0.004488 0.137956 0.026820
			CHANNELS 3 Zrotation Yrotation Xrotation
			JOINT chest
			{
				OFFSET -0.002265 0.056032 0.002855
				CHANNELS 3 Zrotation Yrotation Xrotation
				JOINT lowerneck
				{
					OFFSET -0.013390 0.211636 -0.033468
					CHANNELS 3 Zrotation Yrotation Xrotation
					JOINT upperneck
					{
						OFFSET 0.010113 0.088937 0.050410
						CHANNELS 3 Zrotation Yrotation Xrotation
						End Site
						{
							OFFSET 0.000000 0.000000 0.000000
						}
					}
				}
				JOINT lclavicle
				{
					OFFSET 0.071702 0.114000 -0.018898
					CHANNELS 3 Zrotation Yrotation Xrotation
					JOINT lshoulder
					{
						OFFSET 0.122921 0.045205 -0.019046
						CHANNELS 3 Zrotation Yrotation Xrotation
						JOINT lelbow
						{
							OFFSET 0.255332 -0.015649 -0.022946
							CHANNELS 3 Zrotation Yrotation Xrotation
							JOINT lwrist
							{
								OFFSET 0.265709 0.012698 -0.007375
								CHANNELS 3 Zrotation Yrotation Xrotation
								End Site
								{
									OFFSET 0.000000 0.000000 0.000000
								}
							}
						}
					}
				}
				JOINT rclavicle
				{
					OFFSET -0.082954 0.112472 -0.023707
					CHANNELS 3 Zrotation Yrotation Xrotation
					JOINT rshoulder
					{
						OFFSET -0.113228 0.046853 -0.008472
						CHANNELS 3 Zrotation Yrotation Xrotation
						JOINT relbow
						{
							OFFSET -0.260127 -0.014369 -0.031269
							CHANNELS 3 Zrotation Yrotation Xrotation
							JOINT rwrist
							{
								OFFSET -0.269108 0.006794 -0.006027
								CHANNELS 3 Zrotation Yrotation Xrotation
								End Site
								{
									OFFSET 0.000000 0.000000 0.000000
								}
							}
						}
					}
				}
			}
		}
	}
}
MOTION
Frames: 5
Frame Time: 0.033333
-0.110031 0.824713 0.995483 -7.366593 0.160421 90.145958 8.472436 5.218063 3.195456 -1.078259 -1.921086 -2.885831 -0.871488 7.889720 -5.537593 0.000000 -0.000000 0.000000 -4.150629 -3.281033 1.873530 3.868963 -2.493928 -2.147197 6.038764 -0.518761 -2.475461 0.000000 -0.000000 0.000000 -0.659853 0.079184 -3.184660 3.077924 -2.428799 13.015822 0.658975 -0.185776 -7.320021 -2.502480 -1.300872 4.496418 -0.401105 -1.217599 6.038422 -33.846913 -0.089841 6.450283 -52.980229 -4.777422 14.722056 6.908596 -23.061313 -5.996469 4.862192 -12.492892 -8.170307 29.320605 6.262071 7.167732 48.674602 7.682266 9.549875 -6.284796 11.038242 -21.945192 -0.343039 12.611005 -19.648300 
-0.114076 0.823819 0.994296 -7.936067 0.164057 90.426666 8.903230 5.545940 3.342669 -1.402076 -2.705978 -3.435256 -1.812291 7.602004 -6.708796 0.000000 -0.000000 0.000000 -3.955044 -3.084663 1.373832 3.648387 -3.660870 -1.379397 4.060708 -1.709064 -4.785055 0.000000 -0.000000 0.000000 -0.334423 0.352629 -4.303326 2.693531 -2.087947 12.805203 0.783714 -0.325583 -5.717890 -2.209640 -0.819428 2.880054 -0.562029 -1.715551 7.279742 -32.970553 -0.617879 6.714528 -54.213253 -5.376526 13.279280 7.090628 -22.531697 -4.941122 4.535753 -13.072335 -9.261011 28.937887 6.874137 7.247933 49.496964 7.993957 8.731879 -6.918337 11.113379 -20.582366 -0.427567 12.840630 -20.604892 
-0.117661 0.823559 0.993778 -7.715227 0.247761 90.170981 9.289206 5.712619 3.523405 -1.331895 -3.058005 -3.428942 -2.364805 7.506090 -6.780003 0.000000 -0.000000 0.000000 -3.687977 -3.747417 1.473711 3.204174 -5.178548 -0.632340 1.994062 -3.162536 -6.934138 0.000000 -0.000000 0.000000 0.282582 -0.005938 -3.840767 2.294919 -1.905056 11.858457 0.801119 -0.540325 -4.834029 -2.218511 -0.606991 2.199845 -0.828500 -1.716323 7.778237 -32.488383 -0.814447 6.577515 -54.881788 -5.217639 12.705179 7.372154 -22.649036 -4.711480 4.483985 -12.998766 -9.704572 28.850398 7.547496 7.203713 50.027550 7.811769 8.605526 -7.106645 10.859927 -20.328105 -0.668549 13.098331 -21.433407 
-0.124124 0.825808 0.993670 -7.559624 0.351707 90.033451 9.860263 5.624200 3.263757 -1.294295 -2.954648 -3.026774 -2.830578 7.236244 -6.548492 0.000000 -0.000000 0.000000 -3.200679 -3.789828 1.590346 3.486604 -5.377839 -0.530746 2.222836 -3.459171 -8.357741 0.000000 -0.000000 0.000000 0.872386 -0.206156 -3.429853 2.070466 -1.808407 11.514133 0.765888 -0.651428 -4.106635 -2.082517 -0.063596 1.238071 -1.498822 -1.882738 7.594061 -32.171867 -1.329846 6.296178 -55.390791 -5.354476 12.533401 7.945454 -22.607666 -4.479605 5.248279 -12.829160 -9.498777 28.881046 8.137729 7.123715 50.418644 8.071346 8.445232 -7.420729 10.722755 -20.430915 -0.997732 13.049130 -21.847162 
-0.126394 0.826557 0.993557 -7.386894 0.042268 89.855284 9.630501 5.534052 3.285733 -1.222924 -2.931124 -2.793803 -2.762458 7.062343 -6.634781 0.000000 -0.000000 0.000000 -3.597327 -5.520861 0.822140 2.304645 -9.779049 0.843098 1.777386 -7.762527 -6.821705 0.000000 -0.000000 0.000000 0.615822 -0.351450 -3.078651 2.069137 -1.590151 11.232630 0.741669 -0.893386 -3.828311 -1.617612 0.399345 1.031853 -1.885306 -2.398962 7.448091 -31.897903 -1.045717 6.611081 -55.573317 -6.161696 12.472806 8.010346 -22.328830 -4.613475 4.860895 -13.081475 -9.602172 28.941482 8.445976 7.149861 50.674212 8.005993 8.415644 -7.610857 10.640576 -20.601118 -1.067529 13.135688 -21.941484 
